# This file uses centimeters as units for non-parametric coordinates.

mtllib MTG_Card.mtl
v -1.250000 -0.024886 1.750000
v 1.250000 -0.024886 1.750000
v -1.250000 0.024886 1.750000
v 1.250000 0.024886 1.750000
v -1.250000 0.024886 -1.750000
v 1.250000 0.024886 -1.750000
v -1.250000 -0.024886 -1.750000
v 1.250000 -0.024886 -1.750000
vt 0.580273 0.216973
vt 0.580273 0.084528
vt 0.674877 0.084528
vt 0.674877 0.216973
vt 0.314853 0.216973
vt 0.314853 0.084528
vt 0.409457 0.084528
vt 0.409457 0.216973
vt 0.019303 0.306234
vt 0.476404 0.306234
vt 0.476404 0.946176
vt 0.019303 0.946176
vt 0.517611 0.305336
vt 0.974713 0.305336
vt 0.974713 0.945278
vt 0.517611 0.945278
vt 0.190918 0.096309
vt 0.278415 0.096309
vt 0.278415 0.183806
vt 0.190918 0.183806
vt 0.697769 0.190506
vt 0.697769 0.081689
vt 0.806585 0.081689
vt 0.806585 0.190506
vn 0.000000 0.000000 1.000000
vn 0.000000 0.000000 1.000000
vn 0.000000 0.000000 1.000000
vn 0.000000 0.000000 1.000000
vn 0.000000 1.000000 0.000000
vn 0.000000 1.000000 0.000000
vn 0.000000 1.000000 0.000000
vn 0.000000 1.000000 0.000000
vn 0.000000 0.000000 -1.000000
vn 0.000000 0.000000 -1.000000
vn 0.000000 0.000000 -1.000000
vn 0.000000 0.000000 -1.000000
vn 0.000000 -1.000000 0.000000
vn 0.000000 -1.000000 0.000000
vn 0.000000 -1.000000 0.000000
vn 0.000000 -1.000000 0.000000
vn 1.000000 0.000000 0.000000
vn 1.000000 0.000000 0.000000
vn 1.000000 0.000000 0.000000
vn 1.000000 0.000000 0.000000
vn -1.000000 0.000000 0.000000
vn -1.000000 0.000000 0.000000
vn -1.000000 0.000000 0.000000
vn -1.000000 0.000000 0.000000
usemtl initialShadingGroup
f 1/17/1 2/18/2 4/19/3 3/20/4
f 3/9/5 4/10/6 6/11/7 5/12/8
f 5/21/9 6/22/10 8/23/11 7/24/12
f 7/13/13 8/14/14 2/15/15 1/16/16
f 2/1/17 8/2/18 6/3/19 4/4/20
f 7/5/21 1/6/22 3/7/23 5/8/24
